<svg width="219" height="96" viewBox="0 0 219 96" fill="none" xmlns="http://www.w3.org/2000/svg">
<path d="M26.7003 11.6788C25.8003 8.97877 26.3003 6.47877 27.9003 4.17877C29.4003 2.07877 31.6003 0.678766 34.1003 0.178766C37.9003 -0.621235 42.3003 1.27877 43.7003 5.57877C44.5003 8.07877 44.5003 10.3788 43.2003 12.6788C42.7003 13.4788 42.0003 14.1788 41.4003 14.9788C41.3003 14.9788 41.3003 14.8788 41.2003 14.8788C41.6003 14.2788 41.9003 13.7788 42.3003 13.1788C43.8003 10.2788 44.1003 7.47877 42.2003 4.57877C40.7003 2.37877 38.6003 1.17877 36.0003 0.878766C31.3003 0.278765 28.4003 3.37877 27.3003 6.57877C26.8003 7.87877 26.4003 9.17877 26.6003 10.6788C26.6003 10.9788 26.7003 11.2788 26.7003 11.6788Z" fill="white"/>
<path d="M58.0002 20.5788C58.0002 20.5788 57.9002 20.7788 57.9002 20.8788C57.8002 20.7788 57.6002 20.6788 57.6002 20.4788C57.1002 18.8788 56.4002 17.2788 55.4002 15.9788C54.5002 14.7788 53.3002 13.8788 51.9002 13.2788C51.2002 12.9788 50.9002 12.4788 51.0002 11.8788C51.1002 11.1788 51.7002 10.8788 52.2002 11.2788C54.8002 13.5788 57.1002 16.0788 57.9002 19.5788C57.9002 19.6788 58.0002 19.7788 58.0002 19.8788C58.0002 20.1788 58.0002 20.2788 58.0002 20.5788Z" fill="white"/>
<path d="M41.4998 39.9788C41.7998 40.6788 42.3998 40.6788 42.8998 40.5788C43.4998 40.4788 43.8998 40.1788 43.9998 39.5788C44.1998 38.5788 44.1998 37.5788 44.2998 36.6788C44.3998 35.7788 44.3998 34.8788 44.5998 33.9788C44.7998 32.9788 45.2998 32.7788 46.2998 32.8788C47.0998 32.9788 47.8998 33.0788 48.5998 33.2788C48.7998 33.3788 48.9998 33.5788 49.1998 33.7788C48.9998 33.8788 48.6998 34.1788 48.4998 34.0788C47.7998 33.9788 47.0998 33.7788 46.2998 33.6788C45.3998 33.5788 45.1998 33.7788 45.0998 34.6788C44.7998 36.5788 44.5998 38.5788 44.2998 40.4788C44.1998 41.1788 43.8998 41.3788 43.1998 41.3788C42.6998 41.3788 42.2998 41.3788 41.7998 41.2788C41.1998 41.1788 41.0998 40.7788 41.4998 39.9788Z" fill="white"/>
<path d="M42.9001 30.0789C42.4001 30.0789 42.0001 30.0789 41.5001 30.0789C40.9001 30.0789 40.2001 29.9789 39.6001 29.9789C39.1001 29.9789 38.7001 30.0789 38.7001 30.6789C38.7001 31.2789 39.0001 31.7789 39.5001 31.8789C40.3001 32.0789 41.1001 32.1789 41.9001 32.3789C42.7001 32.5789 42.9001 32.9789 42.7001 33.7789C42.4001 34.9789 42.1001 36.0789 41.9001 37.2789C41.9001 37.2789 41.9001 37.2789 41.7001 37.3789C41.7001 36.8789 41.7001 36.4789 41.8001 36.0789C41.9001 35.4789 42.0001 34.8789 42.1001 34.2789C42.2001 33.5789 42.1001 33.2789 41.4001 33.0789C40.8001 32.8789 40.2001 32.7789 39.6001 32.7789C38.9001 32.6789 38.2001 32.4789 38.1001 31.7789C37.9001 30.9789 38.1001 30.1789 38.6001 29.5789C38.9001 29.1789 39.4001 29.1789 39.9001 29.2789C40.9001 29.3789 41.8001 29.5789 42.8001 29.7789C42.9001 29.7789 42.9001 29.8789 43.0001 29.8789C43.0001 29.8789 42.9001 29.9789 42.9001 30.0789Z" fill="white"/>
<path d="M49.4002 31.1788C48.4002 31.0788 47.5002 31.0788 46.5002 30.8788C45.7002 30.7788 45.4002 30.2788 45.6002 29.4788C45.9002 27.7788 46.2002 26.1788 46.4002 24.4788C46.5002 24.1788 46.4002 23.7788 46.3002 23.3788C46.2002 22.8788 45.7002 22.6788 45.1002 22.8788C44.8002 22.9788 44.6002 22.8788 44.3002 22.8788C44.3002 22.8788 44.2002 22.5788 44.2002 22.4788C44.4002 22.3788 44.7002 22.2788 45.0002 22.2788C46.7002 22.2788 47.4002 23.1788 46.9002 25.0788C46.7002 26.0788 46.4002 26.9788 46.2002 27.9788C46.1002 28.3788 46.1002 28.7788 46.1002 29.1788C46.1002 29.8788 46.6002 30.3788 47.3002 30.4788C47.8002 30.4788 48.3002 30.5788 48.7002 30.5788C49.0002 30.5788 49.2002 30.7788 49.5002 30.8788C49.4002 31.0788 49.4002 31.0788 49.4002 31.1788Z" fill="white"/>
<path d="M18.9 11.9789C18.7 12.2789 18.6 12.5789 18.3 12.7789C17.4 13.5789 16.4 14.2789 15.4 15.0789C13.7 16.4789 12.9 18.3789 12.3 20.4789C12.2 20.8789 12.1 21.1789 12 21.5789C12 21.6789 11.8 21.7789 11.7 21.8789C11.6 21.7789 11.5 21.5789 11.5 21.4789C11.8 20.4789 12.1 19.3789 12.6 18.3789C13.7 16.0789 14.9 13.7789 16.7 11.8789C17 11.5789 17.3 11.3789 17.6 11.1789C18.2 10.7789 18.8 11.1789 18.9 11.9789Z" fill="white"/>
<path d="M33.1 9.87891C33.4 9.87891 33.5 9.87891 33.7 9.97891C33.9 10.0789 34 10.2789 34.2 10.4789C34.1 10.5789 33.9 10.6789 33.8 10.8789C33.6 11.0789 33.3 11.1789 33.2 11.3789C32.9 11.6789 32.5 11.7789 32.2 11.5789C31.9 11.3789 31.7 11.0789 31.5 10.8789C31.7 10.6789 31.9 10.4789 32.2 10.2789C32.5 9.97891 32.9 9.97891 33.1 9.87891Z" fill="white"/>
<path d="M16.4 39.3789C16.5 39.6789 16.6 39.7789 16.7 39.9789C18.1 44.1789 19.4 48.3789 20.8 52.6789C20.9 52.8789 21 53.0789 21.1 53.2789C21.3 53.0789 21.4 52.9789 21.6 52.7789H21.7C21.9 53.3789 21.4 56.2789 20.9 57.1789C20.8 57.0789 20.8 56.9789 20.7 56.7789C20 54.0789 19.3 51.3789 18.6 48.6789C18.6 48.4789 18.4 48.3789 18.3 48.1789C18.2 48.1789 18.2 48.2789 18.1 48.2789C18.2 48.8789 18.3 49.5789 18.4 50.1789C18.9 52.5789 19.4 54.9789 19.8 57.3789C20 59.1789 20.1 60.9789 20 62.7789C19.8 65.8789 18.9 68.8789 17.3 71.4789C17.2 71.5789 17.1 71.6789 16.9 71.7789C16.8 71.6789 16.7 71.4789 16.7 71.3789C16.5 69.2789 16.2 67.1789 16 65.0789C15.8 63.3789 15.7 61.6789 15.5 59.9789C15.4 58.8789 15.2 57.7789 15 56.6789C15.1 56.8789 15 57.0789 15 57.1789C15 58.7789 15 60.2789 15.1 61.8789C15.1 62.9789 15.2 64.0789 15.3 65.1789C15.4 66.7789 15.7 68.2789 15.7 69.8789C15.8 71.9789 15.8 74.0789 15.7 76.1789C15.7 77.8789 15.3 79.5789 14.6 81.2789C13.5 84.0789 11.6 86.1789 9 87.7789C8.7 87.9789 8.3 88.1789 8 88.3789C7.8 88.4789 7.6 88.3789 7.4 88.3789C7.3 88.2789 7.3 88.0789 7.4 87.8789C8.1 86.0789 8.8 84.3789 9.4 82.5789C9.7 81.5789 9.8 80.4789 9.9 79.4789C10 77.6789 9.9 75.8789 9.9 74.0789C9.9 71.9789 9.7 69.8789 9.7 67.8789C9.7 66.5789 9.6 65.2789 9.6 64.0789C9.5 62.0789 9.4 60.1789 9.4 58.1789C9.3 56.5789 9.2 55.0789 9.2 53.4789C9.1 51.4789 9 49.6789 9 47.7789C8.9 46.2789 8.8 44.7789 8.8 43.1789C8.8 42.6789 8.7 42.0789 8.7 41.5789C8.7 41.1789 8.4 40.9789 8 40.7789C6.9 40.5789 6 40.3789 5 40.0789C3.7 39.5789 2.9 38.5789 2.6 37.1789C2.6 37.0789 2.6 36.9789 2.8 36.7789C2.9 36.9789 3.1 37.1789 3.2 37.3789C3.3 37.6789 3.4 37.7789 3.7 37.7789C4 37.7789 4.2 37.7789 4.5 37.7789C5.3 37.7789 5.7 37.5789 5.8 37.0789C6 36.4789 5.8 35.6789 5.3 35.4789C4.9 35.2789 4.4 35.1789 3.9 35.0789C3.7 35.0789 3.6 35.0789 3.3 35.1789C3.5 34.9789 3.5 34.8789 3.6 34.8789C4.5 34.8789 5.4 34.7789 6.3 34.8789C6.8 34.8789 6.9 35.1789 6.6 35.6789C6.3 36.1789 6 36.7789 6.3 37.2789C6.5 37.5789 6.7 37.9789 7 38.0789C7.3 38.0789 7.8 37.7789 8 37.4789C8.5 36.8789 8.6 35.3789 8.1 34.6789C7.5 33.7789 6.6 33.7789 5.6 33.8789C4.8 33.9789 4.1 34.0789 3.3 34.0789C2.7 34.0789 2.6 34.4789 2.6 34.8789C2.5 34.8789 2.5 34.8789 2.4 34.9789C1.6 33.9789 0.8 32.8789 0 31.7789C0.3 31.5789 0.4 31.4789 0.6 31.4789C1 31.2789 1.1 31.4789 1.1 31.8789C1 32.9789 1.8 33.6789 2.8 33.1789C3.9 32.5789 5 32.6789 6.2 33.0789C6.7 33.2789 7.4 33.3789 7.9 33.3789C8.6 33.3789 8.8 32.7789 8.7 32.2789C8.5 31.5789 7.8 31.0789 7.3 31.4789C5.7 32.3789 4.1 32.1789 2.4 31.7789C2.2 31.7789 2.1 31.5789 2 31.4789C2 31.0789 2.1 30.8789 2.2 30.8789C2.9 30.5789 3 30.0789 3 29.3789C3.1 26.8789 3.2 24.3789 3.4 21.9789C3.5 20.7789 3.6 19.5789 3.7 18.4789C3.8 16.8789 3.3 15.4789 2.8 14.0789C2.6 13.3789 2.6 12.8789 3.2 12.4789C3.8 12.0789 3.5 11.3789 3.5 10.8789C3.3 10.0789 3.1 9.27886 2.9 8.57886C2 5.77886 2.7 3.37886 4.3 1.07886C4.5 0.778857 4.8 0.478857 5.1 0.0788574C5.1 0.878857 5.1 1.57886 5.1 2.37886C5.2 3.97886 5.4 5.47886 5.6 6.97886C5.6 7.17886 5.7 7.27886 5.8 7.47886C6 7.87886 6.4 7.87886 6.5 7.47886C6.7 7.07886 6.9 6.57886 7 6.07886C7.6 7.07886 7.6 7.87886 7 8.57886C6.5 9.07886 5.8 9.07886 5.6 8.37886C5.2 7.57886 5 6.57886 4.8 5.67886C4.6 4.67886 4.6 3.67886 4.5 2.57886C4.4 2.67886 4.2 2.87886 4.2 2.97886C3.1 4.77886 2.8 6.67886 3.4 8.77886C3.7 9.67886 3.7 10.6789 3.9 11.5789C4 11.9789 4 12.3789 4.1 12.7789C4.2 13.1789 4.1 13.3789 3.6 13.3789C3.1 13.2789 3 13.4789 3.2 13.8789C4.5 16.6789 4.4 19.4789 4 22.3789C3.7 24.2789 3.6 26.1789 3.5 28.1789C3.5 28.8789 3.6 29.5789 3.8 30.1789C3.9 30.5789 4.3 30.8789 4.6 31.0789C4.8 28.9789 4.4 26.8789 5.2 24.8789C5.1 25.8789 5 26.8789 5 27.9789C5 28.9789 5 29.9789 5 31.0789C5.8 30.9789 6.1 30.6789 6.1 29.7789C6.1 28.4789 6.1 27.1789 6.1 25.9789C6.1 24.2789 6.8 19.8789 7.3 18.3789C7.2 19.2789 7.2 20.2789 7.1 21.1789C6.9 22.5789 6.7 23.9789 6.6 25.3789C6.5 26.6789 6.4 27.9789 6.4 29.3789C6.4 30.1789 6.7 30.5789 7.2 30.5789C7.8 30.5789 8.4 30.0789 8.4 29.4789C8.4 28.0789 8.4 26.6789 8.4 25.1789C8.4 23.4789 8.4 21.7789 8.5 20.1789C8.8 17.2789 9.5 14.4789 10.7 11.7789C11.5 9.97886 12.4 8.17886 13.9 6.87886C16.3 4.77886 19.1 3.87886 22.2 4.87886C23.6 5.37886 24.6 6.37886 24.7 7.87886C24.8 8.97886 24.3 9.97886 23.7 10.8789C23.1 11.7789 22.5 12.6789 22 13.5789C21.1 15.1789 20.9 16.7789 21.3 18.5789C21.6 19.9789 22.7 19.9789 23.7 19.5789C24.3 19.2789 24.9 18.7789 25.5 18.5789C26.6 18.2789 27.8 18.0789 28.9 17.8789C29.3 17.7789 29.7 17.6789 30 17.4789C30.9 16.7789 30.9 16.2789 30.4 15.0789C30.1 14.2789 29.5 13.6789 29 12.9789C27.1 10.6789 27.1 8.07886 28.9 5.87886C29.9 4.67886 31.1 4.17886 32.6 4.07886C35.1 3.97886 37.1 4.97886 38.7 6.97886C40.4 9.17886 40.2 11.7789 38.3 13.8789C37.7 14.5789 37.3 15.2789 37 16.0789C36.6 17.0789 37.2 17.8789 38.3 17.9789C39.9 18.1789 41.6 18.2789 43.2 18.5789C44.2 18.7789 45.1 19.1789 46.1 19.3789C47.7 19.7789 48.4 19.3789 48.5 17.5789C48.6 15.9789 48.2 14.5789 47.5 13.1789C46.8 11.7789 46.1 10.3789 45.5 8.97886C45 7.77886 44.8 6.57886 45.6 5.47886C46.2 4.57886 47.1 4.07886 48.1 4.07886C52.5 3.77886 56.3 5.47886 58.6 9.77886C59.9 12.1789 60.6 14.7789 60.9 17.4789C61.2 19.6789 61.4 21.8789 61.5 23.9789C61.6 27.1789 61.6 30.3789 61.6 33.5789C61.6 35.5789 61.5 37.5789 61.4 39.6789C61.3 41.3789 61.2 42.9789 61.2 44.6789C61.1 46.3789 61 48.0789 61 49.6789C60.9 51.8789 60.8 54.0789 60.8 56.2789C60.7 58.1789 60.7 60.1789 60.7 62.0789C60.6 64.4789 60.4 66.9789 60.4 69.3789C60.3 71.8789 60.1 74.3789 60.2 76.8789C60.3 80.0789 60.9 83.2789 62.1 86.2789C62.3 86.7789 62.6 87.3789 62.9 87.8789C63.1 88.1789 63.1 88.4789 62.7 88.6789C61.7 87.9789 60.6 87.3789 59.6 86.5789C58.6 85.8789 57.6 85.0789 56.7 84.2789C55.3 82.9789 54.3 81.3789 54 79.4789C53.6 77.2789 53.7 75.0789 53.9 72.8789C54 72.1789 54 71.5789 54 70.8789C54.2 68.7789 54.3 66.6789 54.5 64.5789C54.6 62.9789 54.7 61.4789 54.8 59.8789C54.9 58.2789 55 56.6789 55 55.1789C55 54.6789 55 54.2789 55 53.7789C54.9 53.7789 54.9 53.7789 54.8 53.7789C54.7 54.7789 54.5 55.6789 54.4 56.6789C54.2 58.2789 54 59.8789 53.8 61.5789C53.7 62.7789 53.6 63.9789 53.4 65.0789C53.2 66.5789 53 68.0789 52.8 69.6789C52.8 69.8789 52.8 70.0789 52.8 70.2789C52.8 70.4789 52.6 70.6789 52.6 70.8789C52.4 70.7789 52.2 70.6789 52.1 70.4789C51.6 69.5789 51 68.5789 50.6 67.5789C50 66.0789 49.7 64.3789 49.6 62.7789C49.4 60.1789 49.8 57.5789 50.2 54.9789C50.6 52.7789 50.9 50.5789 51.3 48.3789C51.3 48.1789 51.3 47.9789 51.3 47.7789C51.2 47.7789 51.2 47.6789 51.1 47.6789C51.2 48.0789 51 48.2789 51 48.4789C50.5 50.1789 50 51.7789 49.5 53.4789C49.3 54.0789 49.2 54.5789 49 55.1789C48.9 55.3789 48.8 55.5789 48.7 55.7789C48.1 55.0789 48.5 54.0789 47.8 53.3789C47.8 54.6789 47.8 55.7789 47.8 56.8789C47.8 56.9789 47.8 57.0789 47.8 57.1789C47.8 58.6789 47.9 60.1789 47.9 61.6789C47.9 63.1789 48 64.5789 48 66.0789C48 67.2789 48.1 68.3789 48.1 69.5789C48 71.9789 48 74.3789 47.7 76.7789C47.4 79.4789 47 82.1789 46.1 84.7789C45.5 86.4789 44.7 88.0789 43.2 89.1789C42.8 89.4789 42.5 89.9789 42.6 90.4789C42.6 90.6789 42.5 90.7789 42.4 90.9789C42.2 90.8789 42 90.7789 41.9 90.6789C41.7 89.8789 41.4 89.0789 41.4 88.2789C41.4 85.7789 41.6 83.2789 41.6 80.7789C41.6 79.9789 41.5 79.1789 41.2 78.3789C40.7 77.0789 40.6 75.7789 40.5 74.4789C40.4 72.4789 40.4 70.3789 40.2 68.3789C39.9 64.8789 39.6 61.3789 39.3 57.8789C39 55.0789 38.7 52.2789 38.8 49.4789C38.8 49.2789 38.8 49.0789 38.9 48.8789C39.3 50.5789 39.4 52.3789 39.6 54.1789C39.8 55.9789 40 57.8789 40.2 59.6789C40.4 61.4789 40.6 63.2789 40.8 65.1789C41 66.9789 41.2 68.8789 41.4 70.6789C41.6 72.4789 41.8 74.2789 42 76.0789C42.1 76.0789 42.1 76.0789 42.2 76.0789C42.3 74.9789 42.4 73.9789 42.4 72.8789C42.5 67.5789 42.5 62.1789 42.5 56.8789C42.5 54.8789 42.7 52.7789 42.7 50.7789C42.7 48.8789 42.5 47.0789 41.1 45.6789C39.9 44.4789 38.3 44.0789 36.7 43.8789C33.9 43.4789 31 43.7789 28.2 44.0789C27.4 44.1789 26.8 44.5789 26.6 45.3789C26.3 46.4789 26.1 47.5789 26 48.6789C25.7 51.3789 25.5 53.9789 25.3 56.6789C25.1 58.9789 24.9 61.3789 24.7 63.6789C24.4 66.4789 24.2 69.1789 23.9 71.9789C23.7 74.1789 23.5 76.3789 23.3 78.5789C23.1 80.5789 22.8 82.5789 22.6 84.5789C22.5 85.0789 22.6 85.6789 22.6 86.3789C25 83.8789 27.7 82.1789 30.7 80.9789C33.7 79.7789 36.8 78.9789 40 78.4789C40 78.5789 40 78.5789 40.1 78.6789C39.9 78.7789 39.7 78.9789 39.4 78.9789C38.8 79.1789 38.1 79.3789 37.5 79.6789C37.1 79.8789 36.8 80.1789 36.6 80.5789C36.3 81.2789 36.8 81.8789 37.5 81.7789C38.1 81.6789 38.8 81.5789 39.4 81.4789C39.8 81.4789 40.1 81.4789 40.5 81.3789C40.5 81.4789 40.5 81.4789 40.6 81.5789C40.5 81.6789 40.3 81.8789 40.1 81.9789C39.4 82.3789 38.8 82.7789 38.1 83.1789C37.5 83.5789 37.3 84.2789 37.4 84.9789C37.8 87.0789 37.8 89.1789 37.4 91.2789C37.3 91.7789 37.7 92.2789 38.2 92.3789C38.5 92.4789 38.8 92.4789 39.1 92.4789C39.5 92.5789 40 92.7789 40.3 92.9789C41.9 93.9789 43.5 94.8789 45.3 95.3789C45.4 95.3789 45.5 95.4789 45.6 95.4789C46.4 95.5789 46.6 95.2789 46.2 94.5789C46.2 94.4789 46.1 94.3789 46.1 94.2789C46.2 94.2789 46.2 94.2789 46.2 94.2789C46.4 94.5789 46.9 95.0789 46.9 95.2789C46.7 95.8789 46 95.9789 45.5 95.9789C43.7 95.9789 42 95.7789 40.8 94.1789C40.4 93.6789 39.8 93.4789 39.2 93.4789C38 93.4789 37.3 92.7789 36.8 91.7789C36.6 91.2789 36.4 90.7789 35.7 90.5789C35.3 90.4789 35 90.4789 34.6 90.4789C33.1 90.2789 31.7 90.1789 30.2 89.9789C29.7 89.8789 29.3 89.6789 28.9 89.5789C28.1 89.2789 27.3 89.6789 26.6 89.9789C25.4 90.4789 24.2 91.1789 23 91.4789C21.7 91.7789 20.4 91.7789 19.1 91.7789C18.5 91.7789 18.3 91.4789 18.7 90.9789C19.3 90.1789 19.8 89.3789 20.5 88.5789C21.6 87.2789 22.1 85.8789 22.3 84.2789C22.5 82.4789 22.5 80.6789 22.7 78.8789C22.9 77.1789 23.1 75.3789 23.3 73.6789C23.4 72.3789 23.6 71.1789 23.7 69.8789C23.9 68.3789 24 66.8789 24.2 65.3789C24.2 65.1789 24.2 64.9789 24.2 64.7789C24.2 63.8789 24.3 63.0789 24.3 62.1789C24.2 58.8789 24 55.5789 22.9 52.3789C22.6 51.4789 22.4 50.4789 22.4 49.5789C22.3 47.0789 21.6 44.7789 20.8 42.3789C20.2 40.4789 19.6 38.5789 19 36.6789C18.7 35.8789 18.3 35.5789 17.5 35.9789C15.4 37.0789 13.4 38.1789 11.3 39.2789C9.8 40.0789 9.5 41.1789 9.7 42.7789C9.9 44.3789 9.8 46.0789 9.9 47.6789C10.1 51.0789 10.3 54.4789 10.5 57.9789C10.6 59.5789 10.7 61.2789 10.8 62.8789C10.9 65.8789 11 68.9789 11.2 71.9789C11.3 74.4789 11.5 76.9789 11.5 79.4789C11.5 81.4789 11 83.3789 10 85.1789C9.9 85.3789 9.9 85.6789 9.9 85.9789C10.2 85.9789 10.4 85.9789 10.7 85.8789C12.6 85.0789 13.5 83.5789 14.1 81.7789C14.7 80.0789 15.1 78.2789 15.2 76.3789C15.3 74.0789 15.4 71.6789 15.3 69.2789C15.2 66.5789 15 63.9789 14.8 61.2789C14.6 58.4789 14.3 55.5789 14.1 52.7789C13.9 50.0789 13.8 47.3789 13.7 44.5789C13.7 43.8789 13.8 43.1789 13.8 42.5789C13.9 42.5789 13.9 42.5789 14 42.5789C14.1 42.9789 14.2 43.2789 14.2 43.6789C14.8 47.5789 15.5 51.3789 16.1 55.2789C16.6 58.2789 16.9 61.2789 17.3 64.2789C17.5 65.4789 17.5 66.6789 17.7 67.8789C17.7 68.0789 17.8 68.1789 17.9 68.2789C18 68.1789 18.2 68.0789 18.3 67.9789C19 66.3789 19.5 64.6789 19.7 62.8789C20.2 58.4789 19.4 54.2789 18.5 50.0789C17.8 46.9789 17.3 43.8789 16.7 40.7789C16.6 40.3789 16.6 39.9789 16.6 39.6789C16.2 39.5789 16.3 39.5789 16.4 39.3789ZM56.3 41.7789H56.4C56.5 42.7789 56.6 43.6789 56.5 44.6789C56.4 47.1789 56.3 49.7789 56.2 52.2789C56 55.0789 55.7 57.8789 55.5 60.6789C55.3 63.3789 55 66.0789 55 68.7789C54.9 71.2789 55.1 73.8789 55.2 76.3789C55.3 78.5789 55.8 80.7789 56.8 82.7789C57.5 84.1789 58.3 85.3789 59.8 85.9789C60 86.0789 60.2 85.9789 60.5 85.9789C60.5 85.7789 60.5 85.5789 60.4 85.3789C59.2 83.3789 58.8 81.1789 58.7 78.9789C58.7 75.5789 58.8 72.1789 59 68.7789C59.1 65.5789 59.4 62.3789 59.5 59.0789C59.6 57.2789 59.7 55.4789 59.8 53.6789C59.9 50.6789 60.1 47.6789 60.2 44.6789C60.3 42.4789 60.4 40.2789 60.5 38.0789C60.7 35.1789 60.9 32.2789 61 29.2789C61.1 26.1789 61.1 23.0789 60.7 19.9789C60.4 17.4789 59.9 15.0789 58.9 12.7789C57.3 8.97886 54.6 6.37886 50.4 5.37886C48.3 4.87886 46.5 6.37886 46.5 8.47886C46.5 9.47886 47 10.3789 47.5 11.2789C48.2 12.4789 49.1 13.5789 49.8 14.7789C50.7 16.3789 50.7 17.8789 49.6 19.3789C49.4 19.6789 49.2 19.8789 49 20.1789C48.1 21.1789 47.8 21.2789 46.6 20.6789C45.6 20.1789 44.6 19.8789 43.5 20.2789C43.3 20.3789 43 20.1789 42.8 19.9789C42.5 19.7789 42.2 19.3789 41.9 19.2789C40.3 18.8789 38.7 18.5789 37.2 19.5789C37 19.7789 36.7 19.8789 36.4 19.9789C35.2 20.4789 34 20.6789 32.8 20.2789C32.6 20.1789 32.2 20.2789 32.1 20.4789C31.7 20.7789 31.5 20.7789 31.1 20.4789C28.7 18.6789 25.8 19.0789 24 21.4789C23.4 22.2789 22.7 22.9789 22.1 23.7789C20.9 25.1789 19.7 26.4789 18.6 27.9789C17.9 28.8789 17.2 29.4789 16.1 29.7789C14.7 30.1789 13.3 30.6789 12.2 31.6789C11.4 32.2789 11.3 33.1789 11.8 33.9789C11.9 34.1789 12.1 34.4789 12.2 34.6789C12.3 34.8789 12.2 35.0789 12.2 35.2789C12 35.1789 11.8 35.1789 11.7 34.9789C11.2 34.4789 10.8 33.8789 10.4 33.3789C10 33.0789 9.5 33.1789 9.1 33.3789C8.7 33.6789 8.7 34.0789 8.9 34.4789C9.3 35.1789 9.4 36.0789 9.2 36.8789C9.2 37.4789 9 38.0789 8.9 38.5789C8.9 38.7789 8.9 39.0789 8.9 39.2789C9.1 39.1789 9.4 39.1789 9.6 39.0789C13.4 36.9789 17.2 34.7789 21 32.6789C21.8 32.1789 22.7 31.8789 23.6 31.5789C25.4 31.0789 26.5 31.7789 26.9 33.5789C27.1 34.8789 27.2 36.1789 27.2 37.4789C27.3 38.8789 27.7 39.3789 29 39.4789C29.3 39.4789 29.6 39.4789 29.8 39.4789C31.4 39.4789 32.9 39.3789 34.5 39.3789C35.5 39.3789 36.1 38.7789 36 37.6789C35.9 36.6789 35.8 35.5789 35.6 34.5789C35.2 32.3789 34.6 30.2789 33.2 28.5789C33.1 28.4789 33.1 28.2789 33.1 28.0789C33.3 28.0789 33.5 27.9789 33.6 28.0789C34.1 28.2789 34.6 28.5789 35.1 28.8789C35.7 29.1789 36.2 29.1789 36.6 28.6789C36.9 28.2789 36.9 27.7789 36.3 27.2789C35.5 26.6789 34.7 26.1789 33.9 25.5789C33.6 25.3789 32.9 25.1789 33.3 24.5789C33.6 23.9789 34.1 24.4789 34.5 24.6789C35.2 24.9789 36 25.2789 36.7 25.4789C37.2 25.5789 37.6 25.3789 37.7 24.8789C37.8 24.3789 37.5 24.0789 37.1 23.9789C36.4 23.6789 35.7 23.4789 35 23.1789C34.7 23.0789 34.5 22.8789 34.2 22.6789C34.5 22.5789 34.8 22.3789 35.1 22.3789C36.6 22.3789 38 22.2789 39.5 22.2789C39.7 22.2789 40 22.3789 40.2 22.3789C40.1 22.5789 40.1 22.8789 40 23.0789C39.1 24.3789 38.3 25.6789 37.9 27.2789C36.7 31.2789 36.1 35.3789 37.2 39.5789C37.3 39.7789 37.1 40.0789 37 40.2789C36.4 41.1789 36.4 42.2789 37.1 43.0789C37.4 43.4789 37.9 43.6789 38.4 43.3789C38.9 43.0789 39.3 43.1789 39.7 43.5789C41.1 44.6789 42.6 44.8789 44.3 44.0789C45.4 43.5789 46.2 42.6789 46.9 41.7789C50.1 37.0789 51 31.7789 50 26.1789C49.9 25.7789 49.9 25.4789 49.8 24.9789C50 24.9789 50.1 24.9789 50.1 25.0789C50.3 25.5789 50.8 25.6789 51.3 25.6789C51.9 25.6789 52.3 26.1789 52.4 26.6789C52.5 27.3789 52.6 28.0789 52.6 28.7789C52.6 30.7789 52.3 32.6789 51.7 34.4789C50.8 37.3789 49.8 40.2789 48.9 43.2789C48.1 45.7789 47.5 48.2789 47.9 50.9789C48 51.5789 48.1 52.1789 48.3 52.8789C48.3 52.9789 48.5 53.1789 48.7 53.1789C48.8 53.1789 49 52.9789 49.1 52.8789C49.2 52.7789 49.2 52.6789 49.2 52.5789C50.5 48.6789 51.8 44.7789 53.2 40.7789C53.3 40.5789 53.4 40.3789 53.5 40.1789C53.6 40.1789 53.6 40.1789 53.7 40.1789C53.7 40.4789 53.7 40.7789 53.7 41.0789C53.3 43.4789 52.8 45.8789 52.3 48.2789C51.5 51.9789 50.6 55.5789 50.4 59.3789C50.3 62.1789 50.7 64.9789 52 67.5789C52.1 67.7789 52.3 67.8789 52.4 67.9789C52.5 67.7789 52.7 67.5789 52.7 67.4789C53 65.1789 53.1 62.8789 53.5 60.6789C53.9 57.7789 54.4 54.8789 54.9 52.0789C55.3 49.5789 55.7 46.9789 56.2 44.4789C56 43.4789 56.1 42.6789 56.3 41.7789ZM8.7 25.7789C8.8 27.6789 8.9 29.6789 9.1 31.5789C9.2 32.4789 9.6 32.6789 10.3 32.2789C12.1 31.1789 13.8 30.1789 15.5 29.0789C16.5 28.4789 17.4 27.6789 17.4 26.3789C17.4 26.1789 17.5 26.0789 17.5 25.8789C17.7 25.2789 18 25.1789 18.6 25.2789C19 25.3789 19.5 25.2789 19.7 25.0789C20.3 24.5789 20.9 24.0789 21.5 23.4789C22.4 22.4789 22.3 21.3789 21.3 20.3789C20.7 19.7789 20.1 19.1789 19.8 18.3789C19.1 16.6789 19.5 15.1789 20.5 13.7789C21.7 12.0789 22.8 10.3789 23 8.27886C23.2 6.97886 22.6 5.57886 21 5.17886C19.6 4.87886 18.2 5.27886 17 5.97886C13.6 7.77886 11.5 10.7789 10.2 14.3789C9.1 18.1789 8.8 21.9789 8.7 25.7789ZM43.7 70.0789C43.7 71.7789 43.7 73.4789 43.7 75.1789C43.7 78.4789 43.8 81.7789 43.4 85.0789C43.3 85.5789 43.3 86.0789 43.3 86.5789C43.3 87.0789 43.6 87.5789 44.1 87.6789C44.4 87.6789 44.8 87.2789 45 86.9789C45.3 86.2789 45.6 85.5789 45.7 84.7789C46.1 82.1789 46.5 79.4789 46.8 76.8789C47.1 73.9789 47.3 70.9789 47.4 68.0789C47.4 63.5789 47.3 59.0789 47.2 54.5789C47.1 52.5789 46.8 50.5789 46.5 48.5789C46.5 48.3789 46.3 48.2789 46.2 48.0789C46.1 48.1789 45.8 48.2789 45.8 48.4789C45.5 49.0789 45.2 49.6789 45 50.2789C44.1 53.0789 44 55.9789 43.9 58.8789C43.6 62.6789 43.7 66.3789 43.7 70.0789ZM35.2 89.7789C35.6 89.7789 35.9 89.7789 36.3 89.7789C37 89.6789 37.3 89.4789 37.2 88.7789C37.2 88.3789 37.1 87.9789 37 87.5789C36.8 86.0789 36.6 84.5789 36.3 83.0789C36.2 82.5789 36.1 82.1789 35.9 81.6789C35.5 80.7789 34.8 80.3789 33.8 80.6789C31.4 81.4789 29.5 82.9789 28 84.7789C27.3 85.6789 27.3 86.6789 27.9 87.3789C28.4 87.8789 28.9 88.2789 29.5 88.5789C31.3 89.4789 33.2 89.6789 35.2 89.7789ZM25.7 42.6789C25.6 41.4789 25.4 40.1789 25.2 38.7789C25 37.2789 24.4 35.9789 23.3 34.9789C22.8 34.5789 22.5 34.5789 22.4 35.2789C22.3 35.5789 22.4 35.9789 22.4 36.3789C22.4 37.0789 22.6 37.8789 22.6 38.5789C22.7 42.5789 22.7 46.6789 22.9 50.6789C23 52.0789 23.5 53.3789 23.9 54.6789C23.9 54.8789 24.2 55.0789 24.4 55.0789C24.5 55.0789 24.7 54.7789 24.8 54.6789C24.9 54.2789 25 53.8789 25 53.4789C25.1 51.5789 25.1 49.7789 25.3 47.8789C25.3 46.1789 25.5 44.5789 25.7 42.6789ZM34.9 15.0789C34.9 15.7789 34.5 16.0789 34.1 16.3789C33.5 16.6789 32.9 16.7789 32.4 17.1789C31.9 17.4789 31.3 17.8789 30.9 18.3789C30.3 19.0789 30.6 19.7789 31.5 19.8789C32.5 19.9789 33.4 19.9789 34.4 19.7789C35.7 19.5789 36.2 18.8789 36.2 17.5789C36.2 16.1789 36.1 14.7789 36 13.3789C35.8 11.9789 35.5 10.4789 34.7 9.27886C34 8.17886 32.9 7.67886 31.7 7.97886C30.5 8.27886 29.5 9.37886 29.3 10.5789C29.2 11.0789 29.5 11.3789 29.9 11.3789C30.1 11.3789 30.3 11.3789 30.5 11.2789C30.9 11.1789 31 11.2789 31.1 11.5789C31.3 12.0789 31.4 12.5789 31.6 13.0789C31.8 13.6789 32.2 14.1789 32.9 14.2789C33 14.2789 33.1 14.3789 33.3 14.4789C32.5 15.1789 32 15.0789 31.6 14.0789C31.5 13.7789 31.4 13.3789 31.2 13.0789C31 12.7789 30.8 12.4789 30.3 12.7789C30.7 13.4789 30.9 14.2789 31.4 14.9789C31.9 15.7789 32.4 15.9789 33.3 15.6789C33.8 15.4789 34.3 15.2789 34.9 15.0789ZM20.9 91.6789C22.6 91.3789 24.2 90.7789 25.7 89.9789C26.9 89.3789 27.4 88.2789 27.2 86.9789C27.1 86.3789 27 85.8789 27 85.2789C27 84.8789 26.8 84.7789 26.5 84.8789C26 85.0789 25.5 85.2789 25 85.4789C24.3 85.7789 23.9 86.2789 23.7 87.0789C23.6 87.2789 23.4 87.5789 23.1 87.7789C22.1 88.4789 21.2 89.1789 20.2 89.8789C19.8 90.1789 19.4 90.6789 19.7 91.0789C19.9 91.4789 20.5 91.5789 20.9 91.6789ZM34 40.7789C33.9 40.6789 33.9 40.5789 33.9 40.5789C33.6 40.0789 33.2 39.8789 32.7 39.9789C32.2 40.0789 31.8 40.4789 31.7 40.9789C31.7 41.5789 31.8 42.1789 32 42.7789C32.4 43.5789 33.2 43.5789 33.7 42.8789C33.8 42.7789 33.9 42.6789 34 42.4789C34.1 42.5789 34.1 42.6789 34.2 42.6789C34.6 43.4789 35.2 43.5789 35.9 42.9789C36.5 42.3789 36.6 41.1789 36.1 40.3789C35.7 39.7789 35.2 39.6789 34.6 40.1789C34.4 40.3789 34.2 40.5789 34 40.7789ZM28.9 41.6789C28.7 41.2789 28.7 40.7789 28.4 40.3789C28 39.7789 27.2 39.7789 26.8 40.3789C26.2 41.0789 26.4 42.6789 27.2 43.2789C27.7 43.6789 28.3 43.5789 28.6 42.9789C28.7 42.5789 28.8 42.1789 28.9 41.6789ZM31.5 41.5789C31.4 41.1789 31.4 40.8789 31.2 40.6789C31 40.3789 30.6 40.0789 30.3 39.9789C29.9 39.8789 29.5 40.1789 29.3 40.5789C29 41.1789 28.9 41.8789 29.1 42.5789C29.2 42.9789 29.5 43.3789 29.9 43.3789C30.3 43.3789 30.7 43.1789 30.9 42.8789C31.3 42.4789 31.4 41.9789 31.5 41.5789ZM37.7 8.57886C37.7 7.47886 36.2 5.77886 34.7 5.57886C34.2 5.47886 33.5 6.17886 33.5 6.67886C34.4 6.67886 35.5 6.27886 36.3 6.97886C36.3 7.07886 36.3 7.07886 36.3 7.17886C35.8 7.17886 35.4 7.27886 34.9 7.27886C35.9 7.77886 36.8 8.17886 37.7 8.57886ZM36.6 10.9789C36.6 11.4789 36.6 11.8789 36.7 12.2789C36.7 12.5789 36.9 12.7789 37 12.9789C37.1 12.6789 37.3 12.4789 37.4 12.1789C37.4 12.0789 37.3 11.8789 37.3 11.6789C37.3 11.4789 37.3 11.1789 37.4 11.0789C37.9 10.6789 37.9 10.1789 37.6 9.67886C37.2 9.07886 36.8 8.57886 35.8 8.47886C36.3 9.37886 36.7 10.1789 37.2 10.9789L37.1 11.0789C37 11.0789 36.8 10.9789 36.6 10.9789ZM34.2 5.37886C33.9 4.87886 33.4 4.77886 32.7 5.17886C32 5.57886 31.7 6.27886 31.9 6.87886C32.6 6.27886 33.4 5.87886 34.2 5.37886ZM6.3 38.6789C6.3 38.5789 6.2 38.4789 6.2 38.4789C5.7 38.4789 5.2 38.4789 4.7 38.5789C4.6 38.5789 4.4 38.8789 4.5 38.9789C4.7 39.2789 4.9 39.5789 5.2 39.7789C5.4 39.8789 5.7 39.5789 5.9 39.3789C6 39.0789 6.1 38.8789 6.3 38.6789ZM30.6 7.57886C31.3 7.37886 31.5 6.37886 31.1 5.57886C30.3 6.07886 30.2 6.57886 30.6 7.57886ZM29.6 6.97886C29.5 6.97886 29.5 6.97886 29.4 7.07886C29.4 7.27886 29.4 7.57886 29.5 7.77886C29.6 7.97886 29.9 8.17886 30.2 8.17886C30.5 8.17886 30.6 7.97886 30.4 7.77886C30.2 7.47886 29.9 7.27886 29.6 6.97886Z" fill="white"/>
<path d="M211.803 77.3189C210.696 77.3189 209.623 77.1722 208.583 76.8789C207.556 76.5722 206.73 76.1789 206.103 75.6989L207.203 73.2589C207.803 73.6989 208.516 74.0522 209.343 74.3189C210.17 74.5855 210.996 74.7189 211.823 74.7189C212.743 74.7189 213.423 74.5855 213.863 74.3189C214.303 74.0389 214.523 73.6722 214.523 73.2189C214.523 72.8855 214.39 72.6122 214.123 72.3989C213.87 72.1722 213.536 71.9922 213.123 71.8589C212.723 71.7255 212.176 71.5789 211.483 71.4189C210.416 71.1655 209.543 70.9122 208.863 70.6589C208.183 70.4055 207.596 69.9989 207.103 69.4389C206.623 68.8789 206.383 68.1322 206.383 67.1989C206.383 66.3855 206.603 65.6522 207.043 64.9989C207.483 64.3322 208.143 63.8055 209.023 63.4189C209.916 63.0322 211.003 62.8389 212.283 62.8389C213.176 62.8389 214.05 62.9455 214.903 63.1589C215.756 63.3722 216.503 63.6789 217.143 64.0789L216.143 66.5389C214.85 65.8055 213.556 65.4389 212.263 65.4389C211.356 65.4389 210.683 65.5855 210.243 65.8789C209.816 66.1722 209.603 66.5589 209.603 67.0389C209.603 67.5189 209.85 67.8789 210.343 68.1189C210.85 68.3455 211.616 68.5722 212.643 68.7989C213.71 69.0522 214.583 69.3055 215.263 69.5589C215.943 69.8122 216.523 70.2122 217.003 70.7589C217.496 71.3055 217.743 72.0455 217.743 72.9789C217.743 73.7789 217.516 74.5122 217.063 75.1789C216.623 75.8322 215.956 76.3522 215.063 76.7389C214.17 77.1255 213.083 77.3189 211.803 77.3189Z" fill="white"/>
<path d="M195.211 63.0789H198.451V74.4389H205.471V77.0789H195.211V63.0789Z" fill="white"/>
<path d="M192.633 74.4789V77.0789H181.793V63.0789H192.373V65.6789H185.013V68.7189H191.513V71.2389H185.013V74.4789H192.633Z" fill="white"/>
<path d="M175.823 69.8589H178.783V75.5389C178.023 76.1122 177.143 76.5522 176.143 76.8589C175.143 77.1655 174.136 77.3189 173.123 77.3189C171.67 77.3189 170.363 77.0122 169.203 76.3989C168.043 75.7722 167.13 74.9122 166.463 73.8189C165.81 72.7122 165.483 71.4655 165.483 70.0789C165.483 68.6922 165.81 67.4522 166.463 66.3589C167.13 65.2522 168.05 64.3922 169.223 63.7789C170.396 63.1522 171.716 62.8389 173.183 62.8389C174.41 62.8389 175.523 63.0455 176.523 63.4589C177.523 63.8722 178.363 64.4722 179.043 65.2589L176.963 67.1789C175.963 66.1255 174.756 65.5989 173.343 65.5989C172.45 65.5989 171.656 65.7855 170.963 66.1589C170.27 66.5322 169.73 67.0589 169.343 67.7389C168.956 68.4189 168.763 69.1989 168.763 70.0789C168.763 70.9455 168.956 71.7189 169.343 72.3989C169.73 73.0789 170.263 73.6122 170.943 73.9989C171.636 74.3722 172.423 74.5589 173.303 74.5589C174.236 74.5589 175.076 74.3589 175.823 73.9589V69.8589Z" fill="white"/>
<path d="M163.051 63.0789V77.0789H160.391L153.411 68.5789V77.0789H150.211V63.0789H152.891L159.851 71.5789V63.0789H163.051Z" fill="white"/>
<path d="M144.118 74.0789H137.618L136.378 77.0789H133.058L139.298 63.0789H142.498L148.758 77.0789H145.358L144.118 74.0789ZM143.098 71.6189L140.878 66.2589L138.658 71.6189H143.098Z" fill="white"/>
<path d="M127.772 63.0789L121.712 77.0789H118.512L112.472 63.0789H115.972L120.232 73.0789L124.552 63.0789H127.772Z" fill="white"/>
<path d="M107.828 63.0789H111.068V77.0789H107.828V63.0789Z" fill="white"/>
<path d="M101.169 72.1189V77.0789H97.9291V72.0789L92.5091 63.0789H95.9491L99.6891 69.2989L103.429 63.0789H106.609L101.169 72.1189Z" fill="white"/>
<path d="M85.76 71.5789L83.88 73.5389V77.0789H80.66V63.0789H83.88V69.6189L90.08 63.0789H93.68L87.88 69.3189L94.02 77.0789H90.24L85.76 71.5789Z" fill="white"/>
<path d="M218.605 39.0789V53.0789H217.385L208.385 41.7189V53.0789H206.905V39.0789H208.125L217.145 50.4389V39.0789H218.605Z" fill="white"/>
<path d="M196.248 53.1989C194.861 53.1989 193.601 52.8922 192.468 52.2789C191.348 51.6522 190.468 50.7989 189.828 49.7189C189.201 48.6389 188.888 47.4255 188.888 46.0789C188.888 44.7322 189.201 43.5189 189.828 42.4389C190.468 41.3589 191.348 40.5122 192.468 39.8989C193.601 39.2722 194.861 38.9589 196.248 38.9589C197.634 38.9589 198.881 39.2655 199.988 39.8789C201.108 40.4922 201.988 41.3455 202.628 42.4389C203.268 43.5189 203.588 44.7322 203.588 46.0789C203.588 47.4255 203.268 48.6455 202.628 49.7389C201.988 50.8189 201.108 51.6655 199.988 52.2789C198.881 52.8922 197.634 53.1989 196.248 53.1989ZM196.248 51.8789C197.354 51.8789 198.354 51.6322 199.248 51.1389C200.141 50.6322 200.841 49.9389 201.348 49.0589C201.854 48.1655 202.108 47.1722 202.108 46.0789C202.108 44.9855 201.854 43.9989 201.348 43.1189C200.841 42.2255 200.141 41.5322 199.248 41.0389C198.354 40.5322 197.354 40.2789 196.248 40.2789C195.141 40.2789 194.134 40.5322 193.228 41.0389C192.334 41.5322 191.628 42.2255 191.108 43.1189C190.601 43.9989 190.348 44.9855 190.348 46.0789C190.348 47.1722 190.601 48.1655 191.108 49.0589C191.628 49.9389 192.334 50.6322 193.228 51.1389C194.134 51.6322 195.141 51.8789 196.248 51.8789Z" fill="white"/>
<path d="M184.092 39.0789H185.573V53.0789H184.092V39.0789Z" fill="white"/>
<path d="M175.328 40.3589H170.408V39.0789H181.728V40.3589H176.808V53.0789H175.328V40.3589Z" fill="white"/>
<path d="M167.755 49.3389H159.955L158.275 53.0789H156.735L163.135 39.0789H164.595L170.995 53.0789H169.435L167.755 49.3389ZM167.215 48.1389L163.855 40.6189L160.495 48.1389H167.215Z" fill="white"/>
<path d="M142.647 39.0789H148.347C149.827 39.0789 151.134 39.3789 152.267 39.9789C153.401 40.5655 154.281 41.3922 154.907 42.4589C155.534 43.5122 155.847 44.7189 155.847 46.0789C155.847 47.4389 155.534 48.6522 154.907 49.7189C154.281 50.7722 153.401 51.5989 152.267 52.1989C151.134 52.7855 149.827 53.0789 148.347 53.0789H142.647V39.0789ZM148.267 51.7989C149.494 51.7989 150.567 51.5589 151.487 51.0789C152.407 50.5855 153.121 49.9122 153.627 49.0589C154.134 48.1922 154.387 47.1989 154.387 46.0789C154.387 44.9589 154.134 43.9722 153.627 43.1189C153.121 42.2522 152.407 41.5789 151.487 41.0989C150.567 40.6055 149.494 40.3589 148.267 40.3589H144.127V51.7989H148.267Z" fill="white"/>
<path d="M138.078 39.0789V53.0789H136.858L127.858 41.7189V53.0789H126.378V39.0789H127.598L136.618 50.4389V39.0789H138.078Z" fill="white"/>
<path d="M116.178 53.1989C114.364 53.1989 112.951 52.6789 111.938 51.6389C110.924 50.5989 110.418 49.0855 110.418 47.0989V39.0789H111.898V47.0389C111.898 48.6655 112.264 49.8789 112.998 50.6789C113.731 51.4789 114.791 51.8789 116.178 51.8789C117.578 51.8789 118.644 51.4789 119.378 50.6789C120.111 49.8789 120.478 48.6655 120.478 47.0389V39.0789H121.918V47.0989C121.918 49.0855 121.411 50.5989 120.398 51.6389C119.398 52.6789 117.991 53.1989 116.178 53.1989Z" fill="white"/>
<path d="M99.8805 53.1989C98.4938 53.1989 97.2338 52.8922 96.1005 52.2789C94.9805 51.6522 94.1005 50.7989 93.4605 49.7189C92.8338 48.6389 92.5205 47.4255 92.5205 46.0789C92.5205 44.7322 92.8338 43.5189 93.4605 42.4389C94.1005 41.3589 94.9805 40.5122 96.1005 39.8989C97.2338 39.2722 98.4938 38.9589 99.8805 38.9589C101.267 38.9589 102.514 39.2655 103.62 39.8789C104.74 40.4922 105.62 41.3455 106.26 42.4389C106.9 43.5189 107.22 44.7322 107.22 46.0789C107.22 47.4255 106.9 48.6455 106.26 49.7389C105.62 50.8189 104.74 51.6655 103.62 52.2789C102.514 52.8922 101.267 53.1989 99.8805 53.1989ZM99.8805 51.8789C100.987 51.8789 101.987 51.6322 102.88 51.1389C103.774 50.6322 104.474 49.9389 104.98 49.0589C105.487 48.1655 105.74 47.1722 105.74 46.0789C105.74 44.9855 105.487 43.9989 104.98 43.1189C104.474 42.2255 103.774 41.5322 102.88 41.0389C101.987 40.5322 100.987 40.2789 99.8805 40.2789C98.7738 40.2789 97.7671 40.5322 96.8605 41.0389C95.9671 41.5322 95.2605 42.2255 94.7405 43.1189C94.2338 43.9989 93.9805 44.9855 93.9805 46.0789C93.9805 47.1722 94.2338 48.1655 94.7405 49.0589C95.2605 49.9389 95.9671 50.6322 96.8605 51.1389C97.7671 51.6322 98.7738 51.8789 99.8805 51.8789Z" fill="white"/>
<path d="M82.76 40.3589V45.8589H90V47.1389H82.76V53.0789H81.28V39.0789H90.88V40.3589H82.76Z" fill="white"/>
<path d="M162.935 24.2389V29.0789H161.475V24.2389L155.875 15.0789H157.455L162.255 22.9389L167.055 15.0789H168.535L162.935 24.2389Z" fill="white"/>
<path d="M149.469 16.3589H144.549V15.0789H155.869V16.3589H150.949V29.0789H149.469V16.3589Z" fill="white"/>
<path d="M140.714 15.0789H142.194V29.0789H140.714V15.0789Z" fill="white"/>
<path d="M135.82 29.0789L132.62 24.5789C132.26 24.6189 131.887 24.6389 131.5 24.6389H127.74V29.0789H126.26V15.0789H131.5C133.287 15.0789 134.687 15.5055 135.7 16.3589C136.714 17.2122 137.22 18.3855 137.22 19.8789C137.22 20.9722 136.94 21.8989 136.38 22.6589C135.834 23.4055 135.047 23.9455 134.02 24.2789L137.44 29.0789H135.82ZM131.46 23.3789C132.847 23.3789 133.907 23.0722 134.64 22.4589C135.374 21.8455 135.74 20.9855 135.74 19.8789C135.74 18.7455 135.374 17.8789 134.64 17.2789C133.907 16.6655 132.847 16.3589 131.46 16.3589H127.74V23.3789H131.46Z" fill="white"/>
<path d="M120.705 25.3389H112.905L111.225 29.0789H109.685L116.085 15.0789H117.545L123.945 29.0789H122.385L120.705 25.3389ZM120.165 24.1389L116.805 16.6189L113.445 24.1389H120.165Z" fill="white"/>
<path d="M107.355 15.0789V29.0789H105.895V22.6189H97.135V29.0789H95.655V15.0789H97.135V21.3189H105.895V15.0789H107.355Z" fill="white"/>
<path d="M87.36 29.1989C85.9733 29.1989 84.72 28.8922 83.6 28.2789C82.4933 27.6655 81.62 26.8189 80.98 25.7389C80.3533 24.6455 80.04 23.4255 80.04 22.0789C80.04 20.7322 80.3533 19.5189 80.98 18.4389C81.62 17.3455 82.5 16.4922 83.62 15.8789C84.74 15.2655 85.9933 14.9589 87.38 14.9589C88.42 14.9589 89.38 15.1322 90.26 15.4789C91.14 15.8255 91.8867 16.3322 92.5 16.9989L91.56 17.9389C90.4667 16.8322 89.0867 16.2789 87.42 16.2789C86.3133 16.2789 85.3067 16.5322 84.4 17.0389C83.4933 17.5455 82.78 18.2389 82.26 19.1189C81.7533 19.9989 81.5 20.9855 81.5 22.0789C81.5 23.1722 81.7533 24.1589 82.26 25.0389C82.78 25.9189 83.4933 26.6122 84.4 27.1189C85.3067 27.6255 86.3133 27.8789 87.42 27.8789C89.1 27.8789 90.48 27.3189 91.56 26.1989L92.5 27.1389C91.8867 27.8055 91.1333 28.3189 90.24 28.6789C89.36 29.0255 88.4 29.1989 87.36 29.1989Z" fill="white"/>
</svg>
